<svg xmlns:dc="http://purl.org/dc/elements/1.1/" xmlns:cc="http://creativecommons.org/ns#" xmlns:rdf="http://www.w3.org/1999/02/22-rdf-syntax-ns#" xmlns:svg="http://www.w3.org/2000/svg" xmlns="http://www.w3.org/2000/svg" xmlns:sodipodi="http://sodipodi.sourceforge.net/DTD/sodipodi-0.dtd" xmlns:inkscape="http://www.inkscape.org/namespaces/inkscape" version="1.1" x="0px" y="0px" ><symbol id="icon-tc1" viewBox="40 20 50 50" preserveAspectRatio="xMidYMid meet"><g transform="translate(0,-952.36218)"><path d="m 50,976.2684 c -18.1899,0 -33,14.8102 -33,33 0,7.1487 2.3064,13.7766 6.1875,19.1876 l 4.6875,-3.6875 C 24.8063,1020.3864 23,1015.0419 23,1009.2684 c 0,-14.9471 12.0528,-27 27,-27 14.9472,0 27,12.0529 27,27 0,5.7735 -1.8063,11.118 -4.875,15.5001 l 4.6875,3.6875 C 80.6936,1023.045 83,1016.4171 83,1009.2684 c 0,-18.1898 -14.8101,-33 -33,-33 z m 12.5,18.3438 -16.8438,19.1562 c -1.3806,2.3915 -0.5476,5.463 1.8438,6.8438 2.3915,1.3806 5.4631,0.5477 6.8438,-1.8438 L 62.5,994.6122 z"/></g></symbol></svg>

